<?xml version="1.0" standalone="no"?>
<!DOCTYPE svg PUBLIC "-//W3C//DTD SVG 20010904//EN"
 "http://www.w3.org/TR/2001/REC-SVG-20010904/DTD/svg10.dtd">
<svg version="1.0" xmlns="http://www.w3.org/2000/svg"
 width="512.000000pt" height="512.000000pt" viewBox="0 0 512.000000 512.000000"
 preserveAspectRatio="xMidYMid meet">
<metadata>
Created by potrace 1.14, written by Peter Selinger 2001-2017
</metadata>
<g transform="translate(0.000000,512.000000) scale(0.100000,-0.100000)"
fill="#000000" stroke="none">
<path d="M1805 5101 c-80 -36 -105 -90 -105 -225 l0 -95 -427 -3 -428 -3 -57
-28 c-61 -30 -95 -64 -131 -131 -21 -39 -22 -55 -25 -313 l-3 -273 25 -25 c32
-32 75 -33 104 -2 21 23 22 31 22 265 0 264 4 290 55 330 16 13 42 22 61 22
l34 0 0 -2135 0 -2136 25 -24 24 -25 713 0 c629 0 716 2 736 16 37 26 44 49
28 89 -8 19 -16 36 -18 37 -2 2 -307 5 -678 8 l-675 5 0 2085 0 2085 306 3
306 2 5 -54 c6 -68 42 -126 95 -152 36 -18 73 -19 746 -22 500 -2 720 1 750 9
76 20 137 105 137 192 l0 27 305 0 305 0 0 -2090 0 -2090 -663 0 c-720 0 -697
2 -711 -55 -7 -29 15 -79 39 -89 31 -12 1422 -7 1448 5 14 6 30 22 36 36 8 17
11 613 11 2148 l0 2125 25 0 c35 0 82 -25 97 -53 10 -17 14 -379 18 -1785 l5
-1764 24 -19 c30 -24 72 -24 102 0 l24 19 0 1774 0 1773 -21 46 c-27 58 -85
116 -143 143 -44 20 -62 21 -472 24 l-427 3 -4 108 c-3 98 -6 112 -31 150 -18
27 -44 50 -70 62 -40 18 -76 19 -762 19 -677 0 -722 -2 -760 -19z m1463 -143
c15 -15 17 -365 2 -388 -8 -13 -99 -15 -694 -18 -486 -2 -691 0 -705 8 -20 10
-21 19 -21 204 0 106 3 196 7 199 3 4 320 7 703 7 528 0 699 -3 708 -12z"/>
<path d="M2094 4817 c-35 -31 -38 -82 -5 -109 22 -17 51 -18 477 -18 441 0
455 1 474 20 30 30 27 83 -6 109 -26 21 -37 21 -470 21 l-443 0 -27 -23z"/>
<path d="M1202 4130 c-22 -20 -22 -25 -22 -324 0 -295 1 -303 21 -322 19 -17
41 -19 197 -22 192 -4 213 -1 242 28 18 18 20 34 20 163 0 137 -1 144 -23 165
-21 19 -35 22 -118 22 -82 0 -98 -3 -117 -20 -53 -50 -11 -130 69 -130 39 0
39 0 39 -40 l0 -40 -90 0 -90 0 0 195 0 195 140 0 c136 0 142 1 165 25 14 13
25 36 25 50 0 14 -11 37 -25 50 -24 25 -25 25 -218 25 -181 0 -195 -1 -215
-20z"/>
<path d="M1776 4129 l-26 -20 0 -299 c0 -278 1 -299 19 -321 19 -24 21 -24
221 -24 200 0 202 0 221 24 18 22 19 43 19 320 l0 298 -23 21 c-29 27 -67 28
-98 3 -24 -19 -24 -20 -27 -270 l-3 -251 -89 0 -90 0 0 245 0 246 -25 24 c-30
30 -64 32 -99 4z"/>
<path d="M2345 4125 l-25 -24 0 -285 c0 -196 4 -293 12 -311 18 -39 63 -47
255 -43 162 3 174 4 194 25 27 27 29 75 4 103 -16 17 -33 20 -164 22 l-146 3
-3 57 -3 56 116 4 c109 3 118 5 136 27 25 30 24 62 -2 95 -20 25 -23 26 -135
26 l-114 0 0 60 0 60 139 0 c77 0 147 3 156 6 8 4 23 20 31 36 13 25 13 35 3
59 -6 17 -20 34 -30 39 -10 6 -104 10 -209 10 -189 0 -191 0 -215 -25z"/>
<path d="M2920 4130 c-29 -29 -32 -53 -28 -210 3 -141 3 -142 31 -166 27 -23
35 -24 168 -24 l139 0 0 -60 0 -60 -148 0 c-137 0 -150 -2 -167 -20 -25 -28
-23 -76 4 -103 20 -21 32 -22 194 -25 192 -4 237 4 255 43 8 16 12 83 12 174
0 206 6 200 -188 203 l-147 3 -3 58 -3 57 146 0 c142 0 147 1 170 25 14 13 25
36 25 50 0 14 -11 37 -25 50 -24 25 -25 25 -220 25 -181 0 -196 -1 -215 -20z"/>
<path d="M3492 4127 c-18 -19 -22 -35 -22 -93 0 -61 3 -74 23 -92 42 -39 106
-21 123 35 6 18 11 -58 14 -219 5 -238 6 -248 27 -269 27 -27 75 -29 103 -4
19 17 20 30 20 267 0 159 4 248 10 248 6 0 10 -7 10 -15 0 -24 46 -65 73 -65
13 0 36 9 51 21 24 19 26 26 26 94 0 68 -2 75 -26 94 -25 20 -40 21 -219 21
-187 0 -192 -1 -213 -23z"/>
<path d="M655 3755 l-25 -24 0 -1744 c0 -1981 -8 -1811 85 -1903 92 -92 -74
-85 1870 -82 l1710 3 55 30 c30 17 69 49 87 73 58 76 64 120 61 392 -3 240 -3
242 -27 261 -30 24 -72 24 -102 0 -24 -19 -24 -21 -29 -281 l-5 -262 -32 -28
c-20 -18 -48 -31 -75 -35 -24 -3 -790 -5 -1703 -3 -1527 3 -1662 4 -1683 20
-13 9 -31 27 -40 40 -16 21 -17 162 -20 1772 l-2 1750 -22 23 c-29 31 -72 30
-103 -2z"/>
<path d="M1652 3317 c-22 -23 -22 -29 -22 -318 0 -283 1 -296 20 -317 20 -21
28 -22 220 -22 187 0 201 1 220 20 27 27 26 81 -1 106 -18 16 -40 19 -165 22
l-144 3 0 238 c0 226 -1 240 -21 265 -27 34 -77 36 -107 3z"/>
<path d="M2225 3315 l-25 -24 0 -289 c0 -278 1 -290 21 -316 26 -33 79 -36
109 -6 19 19 20 33 20 318 l0 299 -23 21 c-31 29 -72 28 -102 -3z"/>
<path d="M2461 3314 c-19 -24 -21 -40 -21 -180 0 -84 3 -160 6 -169 14 -35 58
-45 194 -45 l130 0 0 -55 0 -55 -130 0 c-166 0 -200 -14 -200 -84 0 -12 10
-32 23 -44 22 -21 32 -22 224 -22 257 0 238 -16 238 205 0 217 11 205 -187
205 l-148 0 0 60 0 60 139 0 c131 0 141 1 165 23 36 32 39 74 6 107 -19 19
-33 20 -219 20 l-200 0 -20 -26z"/>
<path d="M3040 3322 c-28 -23 -39 -115 -21 -161 12 -27 47 -51 75 -51 22 0 66
40 66 61 0 10 5 19 10 19 6 0 10 -86 10 -239 0 -226 1 -240 21 -265 27 -34 79
-36 109 -4 19 21 20 34 20 265 0 143 4 243 9 243 5 0 11 -10 13 -21 2 -12 15
-31 30 -42 22 -17 33 -18 60 -11 42 12 58 44 58 117 0 48 -4 62 -25 82 -24 25
-25 25 -218 25 -174 0 -197 -2 -217 -18z"/>
<path d="M1322 2230 c-32 -30 -30 -82 4 -109 26 -20 37 -21 449 -21 412 0 423
1 449 21 33 26 36 79 6 109 -19 19 -33 20 -453 20 -422 0 -434 -1 -455 -20z"/>
<path d="M2923 2235 c-11 -8 -24 -26 -27 -40 -7 -29 15 -79 39 -89 9 -3 208
-6 441 -6 l425 0 24 25 c32 31 33 74 2 103 -23 22 -26 22 -453 22 -363 0 -433
-2 -451 -15z"/>
<path d="M1326 1829 c-33 -26 -36 -79 -6 -109 19 -19 33 -20 455 -20 422 0
436 1 455 20 30 30 27 83 -6 109 -26 20 -37 21 -449 21 -412 0 -423 -1 -449
-21z"/>
<path d="M2934 1838 c-22 -10 -44 -47 -44 -72 0 -7 9 -25 21 -40 l20 -26 438
0 438 0 21 23 c27 29 28 67 3 98 l-19 24 -429 2 c-283 1 -435 -2 -449 -9z"/>
<path d="M1320 1420 c-30 -30 -27 -83 6 -109 26 -20 37 -21 449 -21 412 0 423
1 449 21 20 16 26 29 26 59 0 72 11 70 -477 70 -420 0 -434 -1 -453 -20z"/>
<path d="M2911 1414 c-12 -15 -21 -33 -21 -40 0 -28 24 -63 49 -74 18 -7 159
-10 450 -8 l423 3 19 24 c26 32 24 73 -4 99 -23 22 -25 22 -459 22 l-437 0
-20 -26z"/>
<path d="M1326 1019 c-34 -27 -36 -79 -4 -109 21 -19 33 -20 455 -20 420 0
434 1 453 20 30 30 27 83 -6 109 -26 20 -37 21 -449 21 -412 0 -423 -1 -449
-21z"/>
<path d="M2919 1021 c-17 -13 -23 -29 -23 -56 0 -27 6 -43 23 -56 22 -18 48
-19 455 -19 l433 0 21 23 c29 31 28 72 -3 102 l-24 25 -429 0 c-405 0 -431 -1
-453 -19z"/>
</g>
</svg>
